# xmcd
#
# Track frame offsets:
#	150
#	17822
#	32684
#	54694
#	73462
#	94880
#	110619
#	128178
#	143658
#	161616
#	176736
#	194477
#	218521
#	238849
#	261737
#
# Disc length: 3799 seconds
#
# Revision: 1
# Processed by: cddbd v1.5.2PL0 Copyright (c) Steve Scherf et al.
# Submitted via: audiograbber 1.83.01
#
DISCID=ea0ed50f
DTITLE=Gökan Tok - Gökan Tok - Vay Gidi Çaycý (2006)
DYEAR=1900
DGENRE=
TTITLE0=68 Plaka
TTITLE1=Çaycý
TTITLE2=Aðzýný kýrarým
TTITLE3=Vay gidi
TTITLE4=Küçüra
TTITLE5=Aldýnmý babalarý
TTITLE6=Sarý kýz
TTITLE7=Gostak
TTITLE8=Anadolu kýzlarý
TTITLE9=Kaynana
TTITLE10=Doktor
TTITLE11=Bundan sana ne
TTITLE12=Naciyem
TTITLE13=Duy yarim
TTITLE14=Hoca
EXTD=
EXTT0=
EXTT1=
EXTT2=
EXTT3=
EXTT4=
EXTT5=
EXTT6=
EXTT7=
EXTT8=
EXTT9=
EXTT10=
EXTT11=
EXTT12=
EXTT13=
EXTT14=
PLAYORDER=
